<?xml version="1.0" encoding="utf-8"?>
<!-- Generator: Adobe Illustrator 16.0.0, SVG Export Plug-In . SVG Version: 6.00 Build 0)  -->
<!DOCTYPE svg PUBLIC "-//W3C//DTD SVG 1.1//EN" "http://www.w3.org/Graphics/SVG/1.1/DTD/svg11.dtd">
<svg version="1.1" id="Layer_1" xmlns="http://www.w3.org/2000/svg" xmlns:xlink="http://www.w3.org/1999/xlink" x="0px" y="0px"
	 width="5px" height="5px" viewBox="-1 -1 5 5" enable-background="new -1 -1 5 5" xml:space="preserve">
<path fill="#D7796C" stroke="#35D1B3" stroke-width="0.5" stroke-miterlimit="10" d="M3.031,1.479c0,0.696-0.614,1.261-1.37,1.261
	H1.493c-0.764,0-1.377-0.565-1.377-1.261l0,0c0-0.693,0.613-1.26,1.377-1.26h0.169C2.417,0.219,3.031,0.786,3.031,1.479L3.031,1.479
	z"/>
<polygon fill="#FFFFFF" stroke="#000000" stroke-miterlimit="10" points="0.5,2.5 0.5,2.5 0.5,2.5 0.5,2.5 0.5,2.5 0.5,2.5 0.5,2.5 
	"/>
<polygon fill="#FFFFFF" stroke="#000000" stroke-miterlimit="10" points="0.5,2.5 0.5,2.5 0.5,2.5 0.5,2.5 0.5,2.5 0.5,2.5 0.5,2.5 
	"/>
<polygon fill="#FFFFFF" stroke="#000000" stroke-miterlimit="10" points="0.5,2.5 0.5,2.5 0.5,2.5 0.5,2.5 0.5,2.5 0.5,2.5 0.5,2.5 
	"/>
</svg>
